<svg id="Layer_1" data-name="Layer 1" xmlns="http://www.w3.org/2000/svg" viewBox="0 0 64 64"><defs><style>.cls-1{fill:#9d448d;}.cls-2{fill:#494949;}.cls-3{fill:#fff;}</style></defs><circle class="cls-1" cx="32" cy="32" r="31.5"/><path class="cls-2" d="M32,1A31,31,0,1,1,1,32,31,31,0,0,1,32,1m0-1A32,32,0,1,0,64,32,32,32,0,0,0,32,0Z"/><path class="cls-3" d="M27.37,39.7V37.38a7.36,7.36,0,0,1,1.48-4.79,22.77,22.77,0,0,1,4.33-3.87,20.67,20.67,0,0,0,3.72-3.26,5.38,5.38,0,0,0,1.24-3.61A4.92,4.92,0,0,0,36.47,18a7.46,7.46,0,0,0-9,0,5,5,0,0,0-1.72,3.95V23a1,1,0,0,1-.3.76.8.8,0,0,1-.7.16l-5.19,0a1.29,1.29,0,0,1-.73-.3.76.76,0,0,1-.27-.62V22.2a11.28,11.28,0,0,1,6.57-10.55,15.83,15.83,0,0,1,7.1-1.53,13.92,13.92,0,0,1,9.61,3,11.8,11.8,0,0,1,2.69,13.16,10.54,10.54,0,0,1-2.21,3.2,31,31,0,0,1-3.44,2.7,19.3,19.3,0,0,0-3.23,2.69,4,4,0,0,0-1,2.69v1.86a.86.86,0,0,1-.7,1,.76.76,0,0,1-.3,0H28.34a.87.87,0,0,1-1-.74Zm.62,13a4.31,4.31,0,0,1-.21-6.09L28,46.4a4.66,4.66,0,0,1,3.34-1.32,4.83,4.83,0,0,1,3.28,1.32A4.19,4.19,0,0,1,35,52.32a3.32,3.32,0,0,1-.37.38A4.83,4.83,0,0,1,31.25,54,4.52,4.52,0,0,1,28,52.7Z"/></svg>