<svg id="Layer_1" data-name="Layer 1" xmlns="http://www.w3.org/2000/svg" viewBox="0 0 64 64"><defs><style>.cls-1{fill:#4a7dbf;}.cls-2{fill:#494949;}.cls-3{fill:#fff;}</style></defs><path class="cls-1" d="M27.86,63.5V54.68l-.4-.08A23,23,0,0,1,9.4,36.54l-.08-.4H.5V27.86H9.32l.08-.4A23,23,0,0,1,27.46,9.4l.4-.08V.5h8.28V9.32l.4.08A23,23,0,0,1,54.6,27.46l.08.4H63.5v8.28H54.68l-.08.4A23,23,0,0,1,36.54,54.6l-.4.08V63.5Z"/><path class="cls-2" d="M35.64,1V9.73l.8.16A22.48,22.48,0,0,1,54.11,27.56l.16.8H63v7.28H54.27l-.16.8A22.48,22.48,0,0,1,36.44,54.11l-.8.16V63H28.36V54.27l-.8-.16A22.48,22.48,0,0,1,9.89,36.44l-.16-.8H1V28.36H9.73l.16-.8A22.48,22.48,0,0,1,27.56,9.89l.8-.16V1h7.28m1-1H27.36V8.91A23.59,23.59,0,0,0,8.91,27.36H0v9.28H8.91A23.59,23.59,0,0,0,27.36,55.09V64h9.28V55.09A23.59,23.59,0,0,0,55.09,36.64H64V27.36H55.09A23.59,23.59,0,0,0,36.64,8.91V0Z"/><rect class="cls-3" x="29.29" y="15.7" width="5.42" height="32.6"/></svg>