<svg id="Layer_1" data-name="Layer 1" xmlns="http://www.w3.org/2000/svg" viewBox="0 0 64 64"><defs><style>.cls-1{fill:#9d448d;}.cls-2{fill:#494949;}</style></defs><path class="cls-1" d="M55.09,27.36A23.59,23.59,0,0,0,36.64,8.91V0H27.36V8.91A23.59,23.59,0,0,0,8.91,27.36H0v9.28H8.91A23.59,23.59,0,0,0,27.36,55.09V64h9.28V55.09A23.59,23.59,0,0,0,55.09,36.64H64V27.36ZM32,48.63A16.63,16.63,0,1,1,48.63,32,16.64,16.64,0,0,1,32,48.63Z"/><path class="cls-2" d="M35.64,1V9.73l.8.16A22.48,22.48,0,0,1,54.11,27.56l.16.8H63v7.28H54.27l-.16.8A22.48,22.48,0,0,1,36.44,54.11l-.8.16V63H28.36V54.27l-.8-.16A22.48,22.48,0,0,1,9.89,36.44l-.16-.8H1V28.36H9.73l.16-.8A22.48,22.48,0,0,1,27.56,9.89l.8-.16V1h7.28m1-1H27.36V8.91A23.59,23.59,0,0,0,8.91,27.36H0v9.28H8.91A23.59,23.59,0,0,0,27.36,55.09V64h9.28V55.09A23.59,23.59,0,0,0,55.09,36.64H64V27.36H55.09A23.59,23.59,0,0,0,36.64,8.91V0Z"/><path class="cls-2" d="M32,16.37A15.63,15.63,0,1,1,16.37,32,15.65,15.65,0,0,1,32,16.37m0-1A16.63,16.63,0,1,0,48.63,32,16.64,16.64,0,0,0,32,15.37Z"/></svg>