<svg id="Layer_1" data-name="Layer 1" xmlns="http://www.w3.org/2000/svg" viewBox="0 0 64 64"><defs><style>.cls-1{fill:#84347c;}.cls-2{fill:#a4398a;}</style></defs><path class="cls-1" d="M32,38c-3.78,0-6-2.25-6-6A6,6,0,0,1,38,32C38,35.78,35.78,38,32,38Z"/><path d="M32,26.22A5.78,5.78,0,0,1,37.78,32c0,3.62-2.16,5.78-5.78,5.78S26.22,35.62,26.22,32A5.78,5.78,0,0,1,32,26.22m0-.5A6.28,6.28,0,0,0,25.72,32c0,3.47,1.94,6.28,6.28,6.28s6.28-2.81,6.28-6.28A6.28,6.28,0,0,0,32,25.72Z"/><path class="cls-2" d="M32,11a4.78,4.78,0,1,1,4.78-4.78A4.79,4.79,0,0,1,32,11Z"/><path d="M32,1.65a4.53,4.53,0,1,1-4.53,4.53A4.53,4.53,0,0,1,32,1.65m0-.5a5,5,0,1,0,5,5,5,5,0,0,0-5-5Z"/><path class="cls-2" d="M21.5,13.19a4.78,4.78,0,0,1-4.37-2.84,4.78,4.78,0,0,1,2.42-6.3,4.67,4.67,0,0,1,1.94-.42,4.79,4.79,0,0,1,4.37,2.84,4.72,4.72,0,0,1,.1,3.65,4.77,4.77,0,0,1-2.52,2.66A4.83,4.83,0,0,1,21.5,13.19Z"/><path d="M21.5,3.88h0a4.53,4.53,0,1,1-1.84.39,4.47,4.47,0,0,1,1.84-.39m0-.5a5,5,0,0,0-2,.44,5,5,0,0,0,2.05,9.62,4.93,4.93,0,0,0,2-.44,5,5,0,0,0-2.05-9.62Z"/><path class="cls-2" d="M12.81,19.5a4.78,4.78,0,1,1,3.55-1.58A4.79,4.79,0,0,1,12.81,19.5Z"/><path d="M12.81,10.19h0a4.54,4.54,0,1,1-3.36,1.5,4.52,4.52,0,0,1,3.36-1.5m0-.5A5,5,0,1,0,16.17,11a5,5,0,0,0-3.36-1.3Z"/><path class="cls-2" d="M7.44,28.8A4.62,4.62,0,0,1,6,28.56a4.67,4.67,0,0,1-2.78-2.37,4.78,4.78,0,0,1,4.25-7,4.82,4.82,0,0,1,4.26,2.61,4.78,4.78,0,0,1-4.26,7Z"/><path d="M7.44,19.49h0a4.71,4.71,0,0,1,1.4.22,4.53,4.53,0,0,1-1.4,8.84A4.81,4.81,0,0,1,6,28.33a4.54,4.54,0,0,1-2.63-2.25,4.53,4.53,0,0,1,4-6.59m0-.5A5,5,0,0,0,5.89,28.8a4.93,4.93,0,0,0,1.55.25A5,5,0,0,0,7.44,19Z"/><path class="cls-2" d="M6.31,39.48A4.78,4.78,0,0,1,5.82,30a4.36,4.36,0,0,1,.51,0,4.78,4.78,0,0,1,.49,9.53Z"/><path d="M6.33,30.17h0a4.53,4.53,0,0,1,.46,9l-.48,0A4.53,4.53,0,0,1,2.8,31.85,4.46,4.46,0,0,1,5.85,30.2a3.87,3.87,0,0,1,.48,0m0-.5a4.89,4.89,0,0,0-.54,0,5,5,0,0,0,.52,10l.54,0a5,5,0,0,0-.52-10Z"/><path class="cls-2" d="M9.64,49.69A4.77,4.77,0,1,1,12,49.05,4.8,4.8,0,0,1,9.64,49.69Z"/><path d="M9.63,40.38h0A4.53,4.53,0,0,1,14,46.08a4.46,4.46,0,0,1-2.11,2.75,4.53,4.53,0,1,1-2.27-8.45m0-.5a5,5,0,0,0,0,10.06,5,5,0,0,0,2.51-.68,5,5,0,0,0-2.52-9.38Z"/><path class="cls-2" d="M16.82,57.67a4.78,4.78,0,1,1,3.87-2A4.77,4.77,0,0,1,16.82,57.67Z"/><path d="M16.83,48.36h0a4.45,4.45,0,0,1,2.65.87,4.53,4.53,0,0,1-2.66,8.19,4.53,4.53,0,0,1-3.66-7.19,4.55,4.55,0,0,1,3.67-1.87m0-.5a5,5,0,1,0,3,1,5,5,0,0,0-3-1Z"/><path class="cls-2" d="M26.64,62a4.78,4.78,0,1,1,0-9.56,4.68,4.68,0,0,1,1,.1,4.78,4.78,0,0,1-1,9.46Z"/><path d="M26.63,52.73h0a4.29,4.29,0,0,1,.94.1,4.53,4.53,0,0,1-.93,9,5,5,0,0,1-.95-.1,4.53,4.53,0,0,1,.94-9m0-.5a5,5,0,0,0-1,10,5.35,5.35,0,0,0,1.05.11,5,5,0,0,0,1-9.95,4.81,4.81,0,0,0-1.05-.11Z"/><path class="cls-2" d="M37.36,62a4.79,4.79,0,0,1-4.66-3.79,4.76,4.76,0,0,1,4.67-5.77,4.78,4.78,0,0,1,0,9.56Z"/><path d="M37.37,52.73h0a4.53,4.53,0,0,1,.94,9,5,5,0,0,1-1,.1,4.53,4.53,0,0,1-.93-9,4.29,4.29,0,0,1,.94-.1m0-.5a4.81,4.81,0,0,0-1,.11,5,5,0,0,0,1,9.95,5.35,5.35,0,0,0,1-.11,5,5,0,0,0-1-10Z"/><path class="cls-2" d="M47.18,57.67A4.78,4.78,0,1,1,50,56.75,4.81,4.81,0,0,1,47.18,57.67Z"/><path d="M47.17,48.36h0a4.53,4.53,0,0,1,2.67,8.19,4.48,4.48,0,0,1-2.66.87,4.53,4.53,0,0,1-2.66-8.19,4.45,4.45,0,0,1,2.65-.87m0-.5a5,5,0,1,0,4.07,2.07,5,5,0,0,0-4.07-2.07Z"/><path class="cls-2" d="M54.36,49.69A4.78,4.78,0,1,1,58.5,47.3,4.78,4.78,0,0,1,54.36,49.69Z"/><path d="M54.37,40.38h0a4.53,4.53,0,1,1-2.27,8.45A4.46,4.46,0,0,1,50,46.08a4.53,4.53,0,0,1,4.38-5.7m0-.5a5,5,0,0,0-2.52,9.38,5,5,0,0,0,2.51.68,5,5,0,0,0,0-10.06Z"/><path class="cls-2" d="M57.69,39.48l-.51,0a4.78,4.78,0,0,1,.49-9.53,4.36,4.36,0,0,1,.51,0,4.78,4.78,0,0,1-.49,9.53Z"/><path d="M57.67,30.17h0a3.87,3.87,0,0,1,.48,0,4.51,4.51,0,0,1,4,5,4.51,4.51,0,0,1-4.49,4.06l-.48,0a4.53,4.53,0,0,1,.46-9m0-.5a5,5,0,0,0-.52,10l.54,0a5,5,0,0,0,.52-10,4.89,4.89,0,0,0-.54,0Z"/><path class="cls-2" d="M56.56,28.8a4.78,4.78,0,0,1-4.26-6.95,4.78,4.78,0,1,1,8.51,4.34A4.67,4.67,0,0,1,58,28.56,4.62,4.62,0,0,1,56.56,28.8Z"/><path d="M56.56,19.49h0A4.53,4.53,0,0,1,58,28.33a4.81,4.81,0,0,1-1.4.22,4.53,4.53,0,0,1-1.4-8.84,4.76,4.76,0,0,1,1.4-.22m0-.5a5,5,0,0,0,0,10.06,4.93,4.93,0,0,0,1.55-.25A5,5,0,0,0,56.56,19Z"/><path class="cls-2" d="M51.19,19.5a4.78,4.78,0,1,1,3.2-1.23A4.8,4.8,0,0,1,51.19,19.5Z"/><path d="M51.19,10.19h0a4.54,4.54,0,1,1-3,1.17,4.52,4.52,0,0,1,3-1.17m0-.5a5,5,0,0,0-3.74,8.4,5,5,0,1,0,3.74-8.4Z"/><path class="cls-2" d="M42.5,13.19a4.83,4.83,0,0,1-1.94-.41A4.77,4.77,0,0,1,38,10.12a4.72,4.72,0,0,1,.1-3.65A4.79,4.79,0,0,1,42.5,3.63a4.69,4.69,0,0,1,2,.42,4.78,4.78,0,0,1-2,9.14Z"/><path d="M42.51,3.88h0a4.46,4.46,0,0,1,1.83.39,4.52,4.52,0,1,1-1.83-.39m0-.5a5,5,0,0,0-2,9.62,4.93,4.93,0,0,0,2,.44,5,5,0,0,0,2-9.62,5,5,0,0,0-2-.44Z"/><path class="cls-2" d="M35.63,23.25a4.78,4.78,0,0,1-4.62-6,4.77,4.77,0,0,1,4.61-3.54,4.69,4.69,0,0,1,1.24.16,4.78,4.78,0,0,1-1.23,9.39Z"/><path d="M35.62,14h0a4.71,4.71,0,0,1,1.18.15A4.53,4.53,0,0,1,35.63,23a4.71,4.71,0,0,1-1.18-.15A4.53,4.53,0,0,1,35.62,14m0-.5a5,5,0,0,0-1.3,9.88,5,5,0,0,0,1.31.17,5,5,0,0,0,1.3-9.88,5,5,0,0,0-1.31-.17Z"/><path class="cls-2" d="M28.38,50.3a4.78,4.78,0,1,1,0-9.55,4.69,4.69,0,0,1,1.24.16,4.78,4.78,0,0,1-1.23,9.39Z"/><path d="M28.37,41h0a4.71,4.71,0,0,1,1.18.15,4.53,4.53,0,0,1-1.17,8.9,4.71,4.71,0,0,1-1.18-.15A4.53,4.53,0,0,1,28.37,41m0-.5a5,5,0,0,0-1.3,9.88,5,5,0,0,0,1.31.17,5,5,0,0,0,1.3-9.88,5,5,0,0,0-1.31-.17Z"/><path class="cls-2" d="M25,24.65a4.78,4.78,0,0,1-4.14-2.39,4.76,4.76,0,0,1,1.75-6.52A4.78,4.78,0,1,1,25,24.65Z"/><path d="M25,15.34h0a4.53,4.53,0,1,1-2.26.61A4.55,4.55,0,0,1,25,15.34m0-.5a5,5,0,1,0,4.36,2.52A5,5,0,0,0,25,14.84Z"/><path class="cls-2" d="M39,48.91a4.79,4.79,0,1,1,2.38-.65A4.81,4.81,0,0,1,39,48.91Z"/><path d="M39,39.6h0a4.53,4.53,0,1,1-2.26.61A4.54,4.54,0,0,1,39,39.6m0-.5a5,5,0,1,0,4.36,2.51A5.05,5.05,0,0,0,39,39.1Z"/><path class="cls-2" d="M18.48,33.15A4.69,4.69,0,0,1,17.24,33a4.79,4.79,0,1,1,1.24.16Z"/><path d="M18.47,23.85h0a4.71,4.71,0,0,1,1.18.15,4.53,4.53,0,0,1-1.17,8.9,4.71,4.71,0,0,1-1.18-.15,4.49,4.49,0,0,1-2.75-2.11,4.53,4.53,0,0,1,3.92-6.79m0-.5a5,5,0,0,0-1.3,9.88,5,5,0,0,0,1.31.17,5,5,0,0,0,1.3-9.88,5,5,0,0,0-1.31-.17Z"/><path class="cls-2" d="M45.53,40.4a4.78,4.78,0,1,1,0-9.55,4.69,4.69,0,0,1,1.24.16,4.78,4.78,0,0,1-1.23,9.39Z"/><path d="M45.52,31.1h0a4.71,4.71,0,0,1,1.18.15,4.49,4.49,0,0,1,2.75,2.11,4.53,4.53,0,0,1-3.92,6.79A4.71,4.71,0,0,1,44.35,40a4.53,4.53,0,0,1,1.17-8.9m0-.5a5,5,0,0,0-1.3,9.88,5,5,0,0,0,1.31.17,5,5,0,0,0,1.3-9.88,5,5,0,0,0-1.31-.17Z"/><path class="cls-2" d="M19.88,43.78a4.78,4.78,0,1,1,2.38-.64A4.79,4.79,0,0,1,19.88,43.78Z"/><path d="M19.87,34.47h0a4.53,4.53,0,0,1,3.92,2.27,4.48,4.48,0,0,1,.46,3.43,4.53,4.53,0,1,1-4.38-5.7m0-.5a5,5,0,1,0,0,10.06,5,5,0,0,0,4.35-7.54A5,5,0,0,0,19.87,34Z"/><path class="cls-2" d="M44.13,29.78A4.8,4.8,0,0,1,40,27.39a4.77,4.77,0,1,1,6.53,1.75A4.81,4.81,0,0,1,44.13,29.78Z"/><path d="M44.12,20.47h0a4.53,4.53,0,0,1,2.27,8.45,4.53,4.53,0,1,1-2.27-8.45m0-.5a5,5,0,0,0-4.35,7.54A5,5,0,1,0,44.12,20Z"/></svg>