<svg id="Layer_1" data-name="Layer 1" xmlns="http://www.w3.org/2000/svg" viewBox="0 0 64 64"><defs><style>.cls-1,.cls-2{fill:#14bbb9;}.cls-1{stroke:#494949;stroke-miterlimit:10;}</style></defs><polygon class="cls-1" points="63.36 28.25 56.88 32 44.44 53.54 44.44 61.04 19.56 61.04 19.56 53.54 7.13 32 0.64 28.25 13.08 6.71 19.56 10.46 44.44 10.46 50.92 6.71 63.36 28.25"/><polygon points="40.67 16.98 23.33 16.98 14.66 32 23.33 47.02 40.67 47.02 49.34 32 40.67 16.98"/><path class="cls-2" d="M32,27.7A4.3,4.3,0,1,1,27.7,32,4.31,4.31,0,0,1,32,27.7m0-5A9.3,9.3,0,1,0,41.3,32,9.31,9.31,0,0,0,32,22.7Z"/><rect x="4.91" y="19.48" width="16.87" height="3.49" transform="matrix(0.5, -0.87, 0.87, 0.5, -11.71, 22.17)"/><rect x="48.91" y="12.79" width="3.49" height="16.87" transform="translate(-3.83 28.17) rotate(-30)"/><rect x="23.56" y="51.79" width="16.87" height="3.49"/></svg>