<svg id="Layer_1" data-name="Layer 1" xmlns="http://www.w3.org/2000/svg" viewBox="0 0 64 64"><defs><style>.cls-1{fill:#9bd8d9;}.cls-2{fill:#494949;}</style></defs><path class="cls-1" d="M5.11,57.74A2.46,2.46,0,0,1,3,54.06L29.88,7.49a2.44,2.44,0,0,1,4.24,0L61,54.06a2.46,2.46,0,0,1-2.12,3.68Z"/><path class="cls-2" d="M32,6.76a1.93,1.93,0,0,1,1.69,1L60.58,54.31a2,2,0,0,1-1.69,2.93H5.11a2,2,0,0,1-1.69-2.93L30.31,7.74a1.93,1.93,0,0,1,1.69-1m0-1a2.93,2.93,0,0,0-2.56,1.48L2.56,53.81a3,3,0,0,0,2.55,4.43H58.89a3,3,0,0,0,2.55-4.43L34.56,7.24A2.93,2.93,0,0,0,32,5.76Z"/></svg>