<?xml version="1.0" encoding="UTF-8" standalone="no"?>
<!-- Created with Inkscape (http://www.inkscape.org/) -->

<svg
   xmlns:dc="http://purl.org/dc/elements/1.1/"
   xmlns:cc="http://creativecommons.org/ns#"
   xmlns:rdf="http://www.w3.org/1999/02/22-rdf-syntax-ns#"
   xmlns:svg="http://www.w3.org/2000/svg"
   xmlns="http://www.w3.org/2000/svg"
   xmlns:sodipodi="http://sodipodi.sourceforge.net/DTD/sodipodi-0.dtd"
   xmlns:inkscape="http://www.inkscape.org/namespaces/inkscape"
   width="128"
   height="128"
   viewBox="0 0 33.866666 33.866668"
   version="1.1"
   id="svg8"
   inkscape:version="0.92.3 (2405546, 2018-03-11)"
   sodipodi:docname="WAYPOINT_FLIGHTPLAN.svg"
   inkscape:export-filename="C:\Users\staton\Desktop\airbus_mfd_icons\WAYPOINT_NON_FLIGHTPLAN.png"
   inkscape:export-xdpi="96"
   inkscape:export-ydpi="96">
  <defs
     id="defs2" />
  <sodipodi:namedview
     id="base"
     pagecolor="#ffffff"
     bordercolor="#666666"
     borderopacity="1.0"
     inkscape:pageopacity="0.0"
     inkscape:pageshadow="2"
     inkscape:zoom="3.959798"
     inkscape:cx="48.053179"
     inkscape:cy="42.217945"
     inkscape:document-units="mm"
     inkscape:current-layer="layer1"
     showgrid="false"
     units="px"
     inkscape:measure-start="0,0"
     inkscape:measure-end="0,0"
     inkscape:window-width="1920"
     inkscape:window-height="1057"
     inkscape:window-x="-8"
     inkscape:window-y="-8"
     inkscape:window-maximized="1" />
  <metadata
     id="metadata5">
    <rdf:RDF>
      <cc:Work
         rdf:about="">
        <dc:format>image/svg+xml</dc:format>
        <dc:type
           rdf:resource="http://purl.org/dc/dcmitype/StillImage" />
        <dc:title></dc:title>
      </cc:Work>
    </rdf:RDF>
  </metadata>
  <g
     inkscape:label="Calque 1"
     inkscape:groupmode="layer"
     id="layer1"
     transform="translate(15,15) scale(1.2)">
     <path d="M 0 11 c -0.0599 -0.1556 -0.6583 -2.0229 -1.3406 -4.1656 l -1.2449 -3.8902 l -4.1296 -1.3167 c -3.579 -1.1491 -4.1296 -1.3526 -4.1296 -1.5561 c 0 -0.2035 0.5386 -0.395 4.1296 -1.4962 l 4.1296 -1.2568 l 1.3167 -4.1296 c 1.0174 -3.1601 1.3765 -4.1416 1.5322 -4.1656 c 0.2514 -0.0479 0.1436 -0.3471 1.58 4.3451 l 1.209 3.9381 l 3.9381 1.209 c 4.6922 1.4364 4.393 1.3287 4.3451 1.58 c -0.0239 0.1556 -1.0055 0.5147 -4.1656 1.5322 l -4.1296 1.3167 l -1.2568 4.1296 c -0.9815 3.2199 -1.3047 4.1296 -1.4723 4.1656 c -0.1317 0.0239 -0.2394 -0.0599 -0.3112 -0.2394 z"
      fill="none"
      stroke="white"
      stroke-width="2.5"
      />
  </g>
</svg>
