<svg id="Layer_1" data-name="Layer 1" xmlns="http://www.w3.org/2000/svg" xmlns:xlink="http://www.w3.org/1999/xlink" viewBox="0 0 64 64"><defs><style>.cls-1{fill:url(#linear-gradient);}.cls-2{fill:#494949;}.cls-3{fill:url(#radial-gradient);}</style><linearGradient id="linear-gradient" x1="5.37" y1="32" x2="58.63" y2="32" gradientUnits="userSpaceOnUse"><stop offset="0" stop-color="#00a4c2"/><stop offset="0.5" stop-color="#9bd8d9"/><stop offset="1" stop-color="#00a4c2"/></linearGradient><radialGradient id="radial-gradient" cx="32" cy="32" r="5.09" gradientUnits="userSpaceOnUse"><stop offset="0.5" stop-color="#9bd8d9"/><stop offset="1" stop-color="#00a4c2"/></radialGradient></defs><polygon class="cls-1" points="18.9 63.5 18.9 55.43 5.37 32 18.9 8.57 18.9 0.5 45.1 0.5 45.1 8.57 58.63 32 45.1 55.43 45.1 63.5 18.9 63.5"/><path class="cls-2" d="M44.6,1V8.71l.13.23L58.06,32,44.73,55.06l-.13.23V63H19.4V55.29l-.13-.23L5.94,32,19.27,8.94l.13-.23V1H44.6m1-1H18.4V8.44L4.79,32,18.4,55.56V64H45.6V55.56L59.21,32,45.6,8.44V0Z"/><polygon points="42.08 14.55 21.92 14.55 11.85 32 21.92 49.45 42.08 49.45 52.15 32 42.08 14.55"/><circle class="cls-3" cx="32" cy="32" r="5.09"/></svg>