{"accessors":[{"bufferView":0,"componentType":5126,"count":237,"min":[0],"max":[7.866667],"type":"SCALAR","name":"accessorAnimationInput"},{"bufferView":1,"componentType":5126,"count":237,"type":"VEC3","name":"accessorAnimationPositions"},{"bufferView":0,"byteOffset":948,"componentType":5126,"count":237,"min":[0],"max":[7.866667],"type":"SCALAR","name":"accessorAnimationInput"},{"bufferView":2,"componentType":5126,"count":237,"type":"VEC4","name":"accessorAnimationRotations"},{"bufferView":0,"byteOffset":1896,"componentType":5126,"count":237,"min":[0],"max":[7.866667],"type":"SCALAR","name":"accessorAnimationInput"},{"bufferView":1,"byteOffset":2844,"componentType":5126,"count":237,"type":"VEC3","name":"accessorAnimationScales"},{"bufferView":0,"byteOffset":2844,"componentType":5126,"count":237,"min":[0],"max":[7.866667],"type":"SCALAR","name":"accessorAnimationInput"},{"bufferView":1,"byteOffset":5688,"componentType":5126,"count":237,"type":"VEC3","name":"accessorAnimationPositions"},{"bufferView":0,"byteOffset":3792,"componentType":5126,"count":237,"min":[0],"max":[7.866667],"type":"SCALAR","name":"accessorAnimationInput"},{"bufferView":2,"byteOffset":3792,"componentType":5126,"count":237,"type":"VEC4","name":"accessorAnimationRotations"},{"bufferView":0,"byteOffset":4740,"componentType":5126,"count":237,"min":[0],"max":[7.866667],"type":"SCALAR","name":"accessorAnimationInput"},{"bufferView":1,"byteOffset":8532,"componentType":5126,"count":237,"type":"VEC3","name":"accessorAnimationScales"},{"bufferView":3,"componentType":5126,"count":10,"min":[-0.04908052086830139,-0.028290599584579468,-0.02829068899154663],"max":[0.04908037185668945,0.028290748596191406,0.028290748596191406],"type":"VEC3","name":"x4_FMS_Screen_1_vertices#0_POSITION"},{"bufferView":3,"byteOffset":12,"componentType":5120,"count":10,"type":"VEC4","name":"x4_FMS_Screen_1_vertices#0_TANGENT"},{"bufferView":3,"byteOffset":16,"componentType":5120,"count":10,"type":"VEC4","name":"x4_FMS_Screen_1_vertices#0_NORMAL"},{"bufferView":3,"byteOffset":20,"componentType":5122,"count":10,"type":"VEC2","name":"x4_FMS_Screen_1_vertices#0_TEXCOORD_0"},{"bufferView":3,"byteOffset":24,"componentType":5122,"count":10,"type":"VEC2","name":"x4_FMS_Screen_1_vertices#0_TEXCOORD_1"},{"bufferView":3,"byteOffset":28,"componentType":5123,"count":10,"type":"VEC4","name":"x4_FMS_Screen_1_vertices#0_COLOR_0"},{"bufferView":4,"componentType":5123,"count":24,"type":"SCALAR","name":"x4_FMS_Screen_1_indices#0"},{"bufferView":3,"byteOffset":360,"componentType":5126,"count":45,"min":[0.005405358970165253,-0.019072534516453743,0.24074162542819977],"max":[0.13812148571014404,0.09507301449775696,0.35439392924308777],"type":"VEC3","name":"x4_CDU_Frame_1_vertices#0_POSITION"},{"bufferView":3,"byteOffset":372,"componentType":5120,"count":45,"type":"VEC4","name":"x4_CDU_Frame_1_vertices#0_TANGENT"},{"bufferView":3,"byteOffset":376,"componentType":5120,"count":45,"type":"VEC4","name":"x4_CDU_Frame_1_vertices#0_NORMAL"},{"bufferView":3,"byteOffset":380,"componentType":5122,"count":45,"type":"VEC2","name":"x4_CDU_Frame_1_vertices#0_TEXCOORD_0"},{"bufferView":3,"byteOffset":384,"componentType":5122,"count":45,"type":"VEC2","name":"x4_CDU_Frame_1_vertices#0_TEXCOORD_1"},{"bufferView":3,"byteOffset":388,"componentType":5123,"count":45,"type":"VEC4","name":"x4_CDU_Frame_1_vertices#0_COLOR_0"},{"bufferView":4,"byteOffset":48,"componentType":5123,"count":123,"type":"SCALAR","name":"x4_CDU_Frame_1_indices#0"},{"bufferView":3,"byteOffset":1980,"componentType":5126,"count":10,"min":[-0.04908052086830139,-0.028290599584579468,-0.02829068899154663],"max":[0.04908037185668945,0.028290748596191406,0.028290748596191406],"type":"VEC3","name":"x4_FMS_Screen_2_vertices#0_POSITION"},{"bufferView":3,"byteOffset":1992,"componentType":5120,"count":10,"type":"VEC4","name":"x4_FMS_Screen_2_vertices#0_TANGENT"},{"bufferView":3,"byteOffset":1996,"componentType":5120,"count":10,"type":"VEC4","name":"x4_FMS_Screen_2_vertices#0_NORMAL"},{"bufferView":3,"byteOffset":2000,"componentType":5122,"count":10,"type":"VEC2","name":"x4_FMS_Screen_2_vertices#0_TEXCOORD_0"},{"bufferView":3,"byteOffset":2004,"componentType":5122,"count":10,"type":"VEC2","name":"x4_FMS_Screen_2_vertices#0_TEXCOORD_1"},{"bufferView":3,"byteOffset":2008,"componentType":5123,"count":10,"type":"VEC4","name":"x4_FMS_Screen_2_vertices#0_COLOR_0"},{"bufferView":4,"byteOffset":294,"componentType":5123,"count":24,"type":"SCALAR","name":"x4_FMS_Screen_2_indices#0"},{"bufferView":3,"byteOffset":2340,"componentType":5126,"count":45,"min":[0.005405358970165253,-0.019072534516453743,0.24074162542819977],"max":[0.13812148571014404,0.09507301449775696,0.35439392924308777],"type":"VEC3","name":"x4_CDU_Frame_2_vertices#0_POSITION"},{"bufferView":3,"byteOffset":2352,"componentType":5120,"count":45,"type":"VEC4","name":"x4_CDU_Frame_2_vertices#0_TANGENT"},{"bufferView":3,"byteOffset":2356,"componentType":5120,"count":45,"type":"VEC4","name":"x4_CDU_Frame_2_vertices#0_NORMAL"},{"bufferView":3,"byteOffset":2360,"componentType":5122,"count":45,"type":"VEC2","name":"x4_CDU_Frame_2_vertices#0_TEXCOORD_0"},{"bufferView":3,"byteOffset":2364,"componentType":5122,"count":45,"type":"VEC2","name":"x4_CDU_Frame_2_vertices#0_TEXCOORD_1"},{"bufferView":3,"byteOffset":2368,"componentType":5123,"count":45,"type":"VEC4","name":"x4_CDU_Frame_2_vertices#0_COLOR_0"},{"bufferView":4,"byteOffset":342,"componentType":5123,"count":123,"type":"SCALAR","name":"x4_CDU_Frame_2_indices#0"},{"bufferView":3,"byteOffset":3960,"componentType":5126,"count":79,"min":[-0.0469212532043457,-0.18845920264720917,-0.06648046523332596],"max":[0.14858973026275635,0.20000553131103516,0.0021900516003370285],"type":"VEC3","name":"x4_HANDLING_Yoke_2_vertices#0_POSITION"},{"bufferView":3,"byteOffset":3972,"componentType":5120,"count":79,"type":"VEC4","name":"x4_HANDLING_Yoke_2_vertices#0_TANGENT"},{"bufferView":3,"byteOffset":3976,"componentType":5120,"count":79,"type":"VEC4","name":"x4_HANDLING_Yoke_2_vertices#0_NORMAL"},{"bufferView":3,"byteOffset":3980,"componentType":5122,"count":79,"type":"VEC2","name":"x4_HANDLING_Yoke_2_vertices#0_TEXCOORD_0"},{"bufferView":3,"byteOffset":3984,"componentType":5122,"count":79,"type":"VEC2","name":"x4_HANDLING_Yoke_2_vertices#0_TEXCOORD_1"},{"bufferView":3,"byteOffset":3988,"componentType":5123,"count":79,"type":"VEC4","name":"x4_HANDLING_Yoke_2_vertices#0_COLOR_0"},{"bufferView":4,"byteOffset":588,"componentType":5123,"count":111,"type":"SCALAR","name":"x4_HANDLING_Yoke_2_indices#0"},{"bufferView":3,"byteOffset":6804,"componentType":5126,"count":57,"min":[-0.026646805927157402,-0.19788148999214172,-0.06469165533781052],"max":[0.1513100266456604,0.20030425488948822,0.006207593716681004],"type":"VEC3","name":"x4_HANDLING_Yoke_1_vertices#0_POSITION"},{"bufferView":3,"byteOffset":6816,"componentType":5120,"count":57,"type":"VEC4","name":"x4_HANDLING_Yoke_1_vertices#0_TANGENT"},{"bufferView":3,"byteOffset":6820,"componentType":5120,"count":57,"type":"VEC4","name":"x4_HANDLING_Yoke_1_vertices#0_NORMAL"},{"bufferView":3,"byteOffset":6824,"componentType":5122,"count":57,"type":"VEC2","name":"x4_HANDLING_Yoke_1_vertices#0_TEXCOORD_0"},{"bufferView":3,"byteOffset":6828,"componentType":5122,"count":57,"type":"VEC2","name":"x4_HANDLING_Yoke_1_vertices#0_TEXCOORD_1"},{"bufferView":3,"byteOffset":6832,"componentType":5123,"count":57,"type":"VEC4","name":"x4_HANDLING_Yoke_1_vertices#0_COLOR_0"},{"bufferView":4,"byteOffset":810,"componentType":5123,"count":75,"type":"SCALAR","name":"x4_HANDLING_Yoke_1_indices#0"},{"bufferView":3,"byteOffset":8856,"componentType":5126,"count":816,"min":[-784.251220703125,-1066.74169921875,-349.69036865234375],"max":[903.391357421875,855.7184448242188,6651.3408203125],"type":"VEC3","name":"x4_INTERIOR_vertices#0_POSITION"},{"bufferView":3,"byteOffset":8868,"componentType":5120,"count":816,"type":"VEC4","name":"x4_INTERIOR_vertices#0_TANGENT"},{"bufferView":3,"byteOffset":8872,"componentType":5120,"count":816,"type":"VEC4","name":"x4_INTERIOR_vertices#0_NORMAL"},{"bufferView":3,"byteOffset":8876,"componentType":5122,"count":816,"type":"VEC2","name":"x4_INTERIOR_vertices#0_TEXCOORD_0"},{"bufferView":3,"byteOffset":8880,"componentType":5122,"count":816,"type":"VEC2","name":"x4_INTERIOR_vertices#0_TEXCOORD_1"},{"bufferView":3,"byteOffset":8884,"componentType":5123,"count":816,"type":"VEC4","name":"x4_INTERIOR_vertices#0_COLOR_0"},{"bufferView":4,"byteOffset":960,"componentType":5123,"count":1401,"type":"SCALAR","name":"x4_INTERIOR_indices#2"},{"bufferView":5,"componentType":5126,"count":60,"min":[-0.44756561517715454,-0.08990684151649475,-0.04534352570772171],"max":[0.4490203559398651,0.21634575724601746,0.03402081876993179],"type":"VEC3","name":"x0_NEW_GLASS_vertices#0_POSITION"},{"bufferView":5,"byteOffset":12,"componentType":5120,"count":60,"type":"VEC4","name":"x0_NEW_GLASS_vertices#0_TANGENT"},{"bufferView":5,"byteOffset":16,"componentType":5120,"count":60,"type":"VEC4","name":"x0_NEW_GLASS_vertices#0_NORMAL"},{"bufferView":5,"byteOffset":20,"componentType":5122,"count":60,"type":"VEC2","name":"x0_NEW_GLASS_vertices#0_TEXCOORD_0"},{"bufferView":5,"byteOffset":24,"componentType":5122,"count":60,"type":"VEC2","name":"x0_NEW_GLASS_vertices#0_TEXCOORD_1"},{"bufferView":5,"byteOffset":28,"componentType":5123,"count":60,"type":"VEC4","name":"x0_NEW_GLASS_vertices#0_COLOR_0"},{"bufferView":6,"componentType":5123,"count":138,"type":"SCALAR","name":"x0_NEW_GLASS_indices#0"}],"animations":[{"name":"All Animations","channels":[{"sampler":0,"target":{"node":10,"path":"translation"}},{"sampler":1,"target":{"node":10,"path":"rotation"}},{"sampler":2,"target":{"node":10,"path":"scale"}},{"sampler":3,"target":{"node":11,"path":"translation"}},{"sampler":4,"target":{"node":11,"path":"rotation"}},{"sampler":5,"target":{"node":11,"path":"scale"}}],"samplers":[{"input":0,"output":1,"interpolation":"LINEAR"},{"input":2,"output":3,"interpolation":"LINEAR"},{"input":4,"output":5,"interpolation":"LINEAR"},{"input":6,"output":7,"interpolation":"LINEAR"},{"input":8,"output":9,"interpolation":"LINEAR"},{"input":10,"output":11,"interpolation":"LINEAR"}]}],"asset":{"generator":"babylon.js glTF exporter for 3dsmax 2019 v1.0.7586.17832","version":"2.0","extensions":{"ASOBO_asset_optimized":{"BoundingBoxMax":[903.391357421875,855.7184448242188,6651.3408203125],"BoundingBoxMin":[-784.251220703125,-1066.74169921875,-349.69036865234375],"MajorVersion":4,"MinorVersion":2},"ASOBO_normal_map_convention":{"tangent_space_convention":"DirectX"}}},"bufferViews":[{"buffer":0,"byteLength":5688,"name":"bufferViewAnimationFloatScalar"},{"buffer":0,"byteLength":11376,"byteOffset":5688,"name":"bufferViewAnimationFloatVec3"},{"buffer":0,"byteLength":7584,"byteOffset":17064,"name":"bufferViewAnimationFloatVec4"},{"buffer":0,"byteLength":38232,"byteStride":36,"byteOffset":24648,"target":34962,"name":"BufferViewVertexND"},{"buffer":0,"byteLength":3762,"byteOffset":62880,"target":34963,"name":"BufferViewIndex"},{"buffer":0,"byteLength":2160,"byteStride":36,"target":34962,"name":"BufferViewVertexND","byteOffset":66642},{"buffer":0,"byteLength":276,"byteOffset":68802,"target":34963,"name":"BufferViewIndex"}],"extensionsUsed":["ASOBO_normal_map_convention","ASOBO_material_detail_map","MSFT_texture_dds","ASOBO_asset_optimized"],"extensionsRequired":["MSFT_texture_dds"],"materials":[{"name":"$FMS_Screen","emissiveFactor":[1,1,1]},{"name":"FMS_Frame","normalTexture":{"index":2},"occlusionTexture":{"index":1},"pbrMetallicRoughness":{"baseColorTexture":{"index":0},"metallicRoughnessTexture":{"index":1}}},{"name":"03_YOKE","normalTexture":{"index":5},"occlusionTexture":{"index":4},"pbrMetallicRoughness":{"baseColorTexture":{"index":3},"metallicRoughnessTexture":{"index":4}},"extensions":{"ASOBO_material_detail_map":{"UVScale":40,"detailNormalTexture":{"index":6}}}},{"name":"CABIN_01","normalTexture":{"index":9},"occlusionTexture":{"index":8},"pbrMetallicRoughness":{"baseColorTexture":{"index":7},"metallicRoughnessTexture":{"index":8}}},{"name":"$PFD_Screen","emissiveFactor":[1,1,1]},{"name":"$MFD_Screen"},{"name":"Glass","alphaMode":"BLEND","occlusionTexture":{"index":10},"pbrMetallicRoughness":{"baseColorTexture":{"index":11},"metallicRoughnessTexture":{"index":10}},"extensions":{"ASOBO_material_shadow_options":{"noCastShadow":true}}}],"meshes":[{"primitives":[{"attributes":{"COLOR_0":17,"NORMAL":14,"POSITION":12,"TANGENT":13,"TEXCOORD_0":15,"TEXCOORD_1":16},"indices":18,"material":0,"mode":4,"extras":{"ASOBO_primitive":{"PrimitiveCount":8,"VertexType":"VTX","VertexVersion":2}}}],"name":"x4_FMS_Screen_1"},{"primitives":[{"attributes":{"COLOR_0":24,"NORMAL":21,"POSITION":19,"TANGENT":20,"TEXCOORD_0":22,"TEXCOORD_1":23},"indices":25,"material":1,"mode":4,"extras":{"ASOBO_primitive":{"PrimitiveCount":41,"VertexType":"VTX","VertexVersion":2}}}],"name":"x4_CDU_Frame_1"},{"primitives":[{"attributes":{"COLOR_0":31,"NORMAL":28,"POSITION":26,"TANGENT":27,"TEXCOORD_0":29,"TEXCOORD_1":30},"indices":32,"material":0,"mode":4,"extras":{"ASOBO_primitive":{"PrimitiveCount":8,"VertexType":"VTX","VertexVersion":2}}}],"name":"x4_FMS_Screen_2"},{"primitives":[{"attributes":{"COLOR_0":38,"NORMAL":35,"POSITION":33,"TANGENT":34,"TEXCOORD_0":36,"TEXCOORD_1":37},"indices":39,"material":1,"mode":4,"extras":{"ASOBO_primitive":{"PrimitiveCount":41,"VertexType":"VTX","VertexVersion":2}}}],"name":"x4_CDU_Frame_2"},{"primitives":[{"attributes":{"COLOR_0":45,"NORMAL":42,"POSITION":40,"TANGENT":41,"TEXCOORD_0":43,"TEXCOORD_1":44},"indices":46,"material":2,"mode":4,"extras":{"ASOBO_primitive":{"PrimitiveCount":37,"VertexType":"VTX","VertexVersion":2}}}],"name":"x4_HANDLING_Yoke_2"},{"primitives":[{"attributes":{"COLOR_0":52,"NORMAL":49,"POSITION":47,"TANGENT":48,"TEXCOORD_0":50,"TEXCOORD_1":51},"indices":53,"material":2,"mode":4,"extras":{"ASOBO_primitive":{"PrimitiveCount":25,"VertexType":"VTX","VertexVersion":2}}}],"name":"x4_HANDLING_Yoke_1"},{"primitives":[{"attributes":{"COLOR_0":59,"NORMAL":56,"POSITION":54,"TANGENT":55,"TEXCOORD_0":57,"TEXCOORD_1":58},"indices":60,"material":3,"mode":4,"extras":{"ASOBO_primitive":{"PrimitiveCount":459,"VertexType":"VTX","VertexVersion":2}}},{"attributes":{"COLOR_0":59,"NORMAL":56,"POSITION":54,"TANGENT":55,"TEXCOORD_0":57,"TEXCOORD_1":58},"indices":60,"material":4,"mode":4,"extras":{"ASOBO_primitive":{"PrimitiveCount":4,"StartIndex":1377,"VertexType":"VTX","VertexVersion":2}}},{"attributes":{"COLOR_0":59,"NORMAL":56,"POSITION":54,"TANGENT":55,"TEXCOORD_0":57,"TEXCOORD_1":58},"indices":60,"material":5,"mode":4,"extras":{"ASOBO_primitive":{"PrimitiveCount":4,"StartIndex":1389,"VertexType":"VTX","VertexVersion":2}}}],"name":"x4_INTERIOR"},{"primitives":[{"attributes":{"COLOR_0":66,"NORMAL":63,"POSITION":61,"TANGENT":62,"TEXCOORD_0":64,"TEXCOORD_1":65},"indices":67,"material":6,"mode":4,"extras":{"ASOBO_primitive":{"PrimitiveCount":46,"VertexType":"VTX","VertexVersion":2}}}],"name":"x0_NEW_GLASS"}],"nodes":[{"translation":[0.562021732,1.02071238,4.330166],"rotation":[0,0,0,1],"scale":[1,1,1],"name":"CONTAINER_AudioPanel_1"},{"translation":[-0.5589989,1.02060235,4.330166],"rotation":[0,0,0,1],"scale":[1,1,1],"name":"CONTAINER_AudioPanel_2"},{"translation":[0.06757313,0.846712351,4.26890659],"rotation":[-0.382542461,0,0,0.9239379],"scale":[1,1,1],"name":"CONTAINER_FMS_CJ4_1","children":[3,4]},{"translation":[0.000614002347,0.007686138,0.02800417],"rotation":[0.382683456,0,0,0.923879564],"scale":[1,0.99999994,0.99999994],"mesh":0,"name":"FMS_Screen_1"},{"translation":[-0.0711462051,0.193483829,-0.2419529],"rotation":[0.382683456,0,0,0.923879564],"scale":[1,0.99999994,0.99999994],"mesh":1,"name":"CDU_Frame_1"},{"translation":[-0.0680421,0.846712351,4.26890659],"rotation":[-0.382542461,0,0,0.9239379],"scale":[1,1,1],"name":"CONTAINER_FMS_CJ4_2","children":[6,7]},{"translation":[0.000614002347,0.007686138,0.02800417],"rotation":[0.382683456,0,0,0.923879564],"scale":[1,0.99999994,0.99999994],"mesh":2,"name":"FMS_Screen_2"},{"translation":[-0.0711462051,0.193483829,-0.2419529],"rotation":[0.382683456,0,0,0.923879564],"scale":[1,0.99999994,0.99999994],"mesh":3,"name":"CDU_Frame_2"},{"translation":[0.213176191,0.8759955,4.29987144],"rotation":[-0.3811726,0,0,0.924503863],"scale":[1,1,1],"name":"CONTAINERS_MFD_Control_CJ4_1"},{"translation":[-0.209522665,0.8759955,4.29987144],"rotation":[-0.3811726,0,0,0.924503863],"scale":[1,1,1],"name":"CONTAINERS_MFD_Control_CJ4_2"},{"translation":[-0.344400048,0.9602583,4.13643551],"rotation":[0.06073025,0,0,0.9981542],"scale":[0.99999994,1.00000083,1.00000083],"mesh":4,"name":"HANDLING_Yoke_2"},{"translation":[0.335959077,0.9602583,4.13643551],"rotation":[0.0607302338,0,0,0.9981542],"scale":[0.99999994,1.00000107,1.00000107],"mesh":5,"name":"HANDLING_Yoke_1"},{"translation":[0.0476321764,1.36733222,4.362232],"rotation":[-3.293172e-9,-0.999048233,0.0436193831,-7.542604e-8],"scale":[0.0009787936,0.0009787936,0.0009787936],"mesh":6,"name":"INTERIOR"},{"translation":[0.3293782,0.6439392,3.69072127],"rotation":[0,0,0,1],"scale":[1,1,1],"name":"PILOT_0"},{"translation":[-0.3283366,0.6439392,3.69072127],"rotation":[0,0,0,1],"scale":[1,1,1],"name":"PILOT_1"},{"translation":[0.00016605854034423828,0.934013605117798,4.298873424530029],"mesh":7,"name":"NEW_GLASS"}],"scene":0,"scenes":[{"nodes":[0,1,2,5,8,9,10,11,12,13,14,15]}],"textures":[{"extensions":{"MSFT_texture_dds":{"source":0}}},{"extensions":{"MSFT_texture_dds":{"source":1}}},{"extensions":{"MSFT_texture_dds":{"source":2}}},{"extensions":{"MSFT_texture_dds":{"source":3}}},{"extensions":{"MSFT_texture_dds":{"source":4}}},{"extensions":{"MSFT_texture_dds":{"source":5}}},{"extensions":{"MSFT_texture_dds":{"source":6}}},{"extensions":{"MSFT_texture_dds":{"source":7}}},{"extensions":{"MSFT_texture_dds":{"source":8}}},{"extensions":{"MSFT_texture_dds":{"source":9}}},{"extensions":{"MSFT_texture_dds":{"source":10}}},{"extensions":{"MSFT_texture_dds":{"source":11}}}],"buffers":[{"byteLength":69078,"uri":"CJ4_Cockpit_LOD04.bin"}],"images":[{"uri":"CJ4_COCKPIT_PANEL_ALBD.PNG.DDS","extras":"ASOBO_image_converted_meta"},{"uri":"CJ4_COCKPIT_PANEL_COMP.PNG.DDS","extras":"ASOBO_image_converted_meta"},{"uri":"CJ4_COCKPIT_PANEL_NORM.PNG.DDS","extras":"ASOBO_image_converted_meta"},{"uri":"CJ4_COCKPIT_YOKE_ALBD.PNG.DDS","extras":"ASOBO_image_converted_meta"},{"uri":"CJ4_COCKPIT_YOKE_COMP.PNG.DDS","extras":"ASOBO_image_converted_meta"},{"uri":"CJ4_COCKPIT_YOKE_NORM.PNG.DDS","extras":"ASOBO_image_converted_meta"},{"uri":"CELLULAR_BLUR_NORM.PNG.DDS","extras":"ASOBO_image_converted_meta"},{"uri":"CJ4_COCKPIT_CABIN_01_ALBD.PNG.DDS","extras":"ASOBO_image_converted_meta"},{"uri":"CJ4_COCKPIT_CABIN_01_COMP.PNG.DDS","extras":"ASOBO_image_converted_meta"},{"uri":"CJ4_COCKPIT_CABIN_01_NORM.PNG.DDS","extras":"ASOBO_image_converted_meta"},{"uri":"GLASS_COMP.PNG.DDS","name":"GLASS_COMP","extras":"ASOBO_image_converted_meta"},{"uri":"GLASS_ALBEDO.PNG.DDS","name":"GLASS_ALBEDO","extras":"ASOBO_image_converted_meta"}]}