<svg id="Layer_1" data-name="Layer 1" xmlns="http://www.w3.org/2000/svg" viewBox="0 0 64 64"><defs><style>.cls-1{fill:#fff;stroke:#000;stroke-miterlimit:10;stroke-width:0.5px;}</style></defs><path class="cls-1" d="M61.72,37.55l-17.2-4.3A12,12,0,0,0,42.06,33H34l-.17,2.75h4a.77.77,0,0,1,.77.75v4.65a3.42,3.42,0,0,1-2,3.11l-3.36,1.53-.38,6.28,9.94,6.78a1.53,1.53,0,0,1,.7,1.29l.35,2.41a.4.4,0,0,1-.55.36L33.13,58.63a3,3,0,0,0-2.26,0L20.7,62.91a.4.4,0,0,1-.55-.36l.35-2.41a1.53,1.53,0,0,1,.7-1.29l9.94-6.78-.38-6.28L27.4,44.26a3.42,3.42,0,0,1-2-3.11V36.5a.77.77,0,0,1,.77-.75h4L30,33h-8a12,12,0,0,0-2.46.25l-17.2,4.3c-.25.05,0-1.41.25-1.55,0,0,17.73-10.43,25.89-14V11.53a5,5,0,0,1,.16-1.28l2.2-8.68a1.26,1.26,0,0,1,2.44,0l2.2,8.68a5,5,0,0,1,.16,1.28V22c8.16,3.54,25.89,14,25.89,14C61.68,36.14,62,37.6,61.72,37.55Z"/></svg>