<svg id="Layer_1" data-name="Layer 1" xmlns="http://www.w3.org/2000/svg" viewBox="0 0 64 64"><defs><style>.cls-1{fill:#af5acc;}.cls-1,.cls-2,.cls-3,.cls-4,.cls-5{stroke:#000;stroke-miterlimit:10;}.cls-2,.cls-4,.cls-5{fill:none;}.cls-2{stroke-width:0.25px;}.cls-3{fill:#fff;}.cls-4{stroke-width:0.75px;}.cls-5{stroke-width:0.5px;}</style></defs><path d="M32,4.77c-3.11,0-7.88.8-8.52.27-.31-.25.74-2,2.64-2,1.46,0,5.88.36,5.88.36s4.42-.36,5.88-.36c1.9,0,2.95,1.74,2.64,2C39.88,5.57,35.11,4.77,32,4.77Z"/><path class="cls-1" d="M45.09,55.13l-.7,3.22c-.09.41-.28.6-.84.79-2.72.9-8.2,1.4-10.59,1.58l-1.16.08-.75,0c-2.05-.16-7.73-.66-10.6-1.61-.56-.19-.75-.38-.84-.79l-.7-3.22a1,1,0,0,1,.88-1.22l9.55-1c-1.35-7-2.68-15.56-2.68-19.12V31.59H1.57c0-1.94,1-6.29,5.34-7.16,3.71-.75,13.45-2.07,19.75-2.78V16.07C26.66,10.91,30.8,1,32,1s5.34,9.9,5.34,15.06v5.58c6.3.7,16,2,19.75,2.78,4.3.87,5.34,5.22,5.34,7.16H37.34v2.17c0,3.57-1.33,12.15-2.69,19.16l9.56,1A1,1,0,0,1,45.09,55.13Z"/><path class="cls-2" d="M32,60.73a39.58,39.58,0,0,1-2.17-7.18C28.41,47.08,27.16,37.93,27.16,34V16.29c0-5,3.72-13.81,4.84-14.74,1.12.93,4.84,9.77,4.84,14.74V34c0,3.94-1.25,13.1-2.68,19.6A38.78,38.78,0,0,1,32,60.73Z"/><path class="cls-3" d="M33,60.72c-.43,1.63-.77,2.63-1,2.63s-.53-1-.95-2.6l.75,0Z"/><path d="M26.66,21.18,30,19.54a4.55,4.55,0,0,1,4,0l3.32,1.64-3.71-3.65a2.36,2.36,0,0,0-3.26,0Z"/><path class="cls-4" d="M32,50l1,4.48a5.63,5.63,0,0,1-.1,2.2L32,60.31l-.89-3.66a5.69,5.69,0,0,1-.1-2.21Z"/><line class="cls-5" x1="29.98" y1="4.58" x2="34.02" y2="4.58"/></svg>