<svg id="Layer_1" data-name="Layer 1" xmlns="http://www.w3.org/2000/svg" viewBox="0 0 64 64"><defs><style>.cls-1{fill:#9d448d;}.cls-2{fill:#494949;}.cls-3{fill:#fff;}</style></defs><circle class="cls-1" cx="32" cy="32" r="31.5"/><path class="cls-2" d="M32,1A31,31,0,1,1,1,32,31,31,0,0,1,32,1m0-1A32,32,0,1,0,64,32,32,32,0,0,0,32,0Z"/><path class="cls-3" d="M37.2,47.93,31.4,35.09a.35.35,0,0,0-.33-.24H26.76a.25.25,0,0,0-.26.28V47.76a.73.73,0,0,1-.66.79.43.43,0,0,1-.16,0H20.63a.71.71,0,0,1-.8-.6.6.6,0,0,1,0-.19V16.24a.71.71,0,0,1,.61-.79H33.87a10.7,10.7,0,0,1,5.29,1.26,8.48,8.48,0,0,1,3.56,3.51A10.44,10.44,0,0,1,44,25.38a9.65,9.65,0,0,1-1.61,5.54A8.64,8.64,0,0,1,38,34.18a.26.26,0,0,0-.19.16.18.18,0,0,0,0,.22l6.24,13a.78.78,0,0,1,.13.44.5.5,0,0,1-.17.38,1,1,0,0,1-.53.13H38.15A1,1,0,0,1,37.2,47.93ZM26.5,21.45v7.92c0,.2,0,.29.26.29h6.16a4.54,4.54,0,0,0,3.22-1.15,4,4,0,0,0,1.26-3,4.08,4.08,0,0,0-1.26-3.09,4.42,4.42,0,0,0-3.22-1.22H26.76a.31.31,0,0,0-.26.34Z"/></svg>