<svg id="Layer_1" data-name="Layer 1" xmlns="http://www.w3.org/2000/svg" viewBox="0 0 64 64"><defs><style>.cls-1{fill:#9d448d;}.cls-2{fill:#494949;}</style></defs><path class="cls-1" d="M32,8.45A23.55,23.55,0,1,0,55.55,32,23.56,23.56,0,0,0,32,8.45Zm0,40.18A16.63,16.63,0,1,1,48.63,32,16.64,16.64,0,0,1,32,48.63Z"/><path class="cls-2" d="M32,9.45A22.55,22.55,0,1,1,9.45,32,22.58,22.58,0,0,1,32,9.45m0-1A23.55,23.55,0,1,0,55.55,32,23.56,23.56,0,0,0,32,8.45Z"/><path class="cls-2" d="M32,16.37A15.63,15.63,0,1,1,16.37,32,15.65,15.65,0,0,1,32,16.37m0-1A16.63,16.63,0,1,0,48.63,32,16.64,16.64,0,0,0,32,15.37Z"/></svg>